<?xml version="1.0" encoding="UTF-8"?>
<svg version="1.1" xmlns="http://www.w3.org/2000/svg" width="350" height="350">
<path d="M0 0 C0.811203 0.00054382 1.62240601 0.00108765 2.45819092 0.00164795 C29.32401208 0.08414144 53.99489742 5.68259666 78.1875 17.375 C79.22753174 17.87555908 79.22753174 17.87555908 80.28857422 18.38623047 C122.06513916 38.78475808 152.9542222 75.8821656 168.23730469 119.47021484 C170.79561356 127.2910676 172.67320029 135.29140109 174.1875 143.375 C174.37151367 144.32560303 174.55552734 145.27620605 174.74511719 146.25561523 C176.38005802 155.57638087 176.58635228 164.753803 176.5625 174.1875 C176.56168427 175.4043045 176.56168427 175.4043045 176.56085205 176.64569092 C176.47835856 203.51151208 170.87990334 228.18239742 159.1875 252.375 C158.85379395 253.06835449 158.52008789 253.76170898 158.17626953 254.47607422 C137.77774192 296.25263916 100.6803344 327.1417222 57.09228516 342.42480469 C49.2714324 344.98311356 41.27109891 346.86070029 33.1875 348.375 C32.23689697 348.55901367 31.28629395 348.74302734 30.30688477 348.93261719 C20.98611913 350.56755802 11.808697 350.77385228 2.375 350.75 C1.563797 350.74945618 0.75259399 350.74891235 -0.08319092 350.74835205 C-26.94901208 350.66585856 -51.61989742 345.06740334 -75.8125 333.375 C-76.50585449 333.04129395 -77.19920898 332.70758789 -77.91357422 332.36376953 C-119.69013916 311.96524192 -150.5792222 274.8678344 -165.86230469 231.27978516 C-168.42061356 223.4589324 -170.29820029 215.45859891 -171.8125 207.375 C-171.99651367 206.42439697 -172.18052734 205.47379395 -172.37011719 204.49438477 C-174.00505802 195.17361913 -174.21135228 185.996197 -174.1875 176.5625 C-174.18695618 175.751297 -174.18641235 174.94009399 -174.18585205 174.10430908 C-174.10335856 147.23848792 -168.50490334 122.56760258 -156.8125 98.375 C-156.47879395 97.68164551 -156.14508789 96.98829102 -155.80126953 96.27392578 C-150.52299773 85.46392671 -144.31750979 75.76897397 -136.8125 66.375 C-136.33941406 65.78090332 -135.86632812 65.18680664 -135.37890625 64.57470703 C-108.99642697 31.82003678 -72.15226213 10.11917318 -30.8125 2.375 C-29.86189697 2.19098633 -28.91129395 2.00697266 -27.93188477 1.81738281 C-18.61111913 0.18244198 -9.433697 -0.02385228 0 0 Z " fill="#420183" transform="translate(173.8125,-0.375)"/>
<path d="M0 0 C0.811203 0.00054382 1.62240601 0.00108765 2.45819092 0.00164795 C29.32401208 0.08414144 53.99489742 5.68259666 78.1875 17.375 C79.22753174 17.87555908 79.22753174 17.87555908 80.28857422 18.38623047 C122.06513916 38.78475808 152.9542222 75.8821656 168.23730469 119.47021484 C170.79561356 127.2910676 172.67320029 135.29140109 174.1875 143.375 C174.37151367 144.32560303 174.55552734 145.27620605 174.74511719 146.25561523 C176.38005802 155.57638087 176.58635228 164.753803 176.5625 174.1875 C176.56168427 175.4043045 176.56168427 175.4043045 176.56085205 176.64569092 C176.47835856 203.51151208 170.87990334 228.18239742 159.1875 252.375 C158.85379395 253.06835449 158.52008789 253.76170898 158.17626953 254.47607422 C137.77774192 296.25263916 100.6803344 327.1417222 57.09228516 342.42480469 C49.2714324 344.98311356 41.27109891 346.86070029 33.1875 348.375 C32.23689697 348.55901367 31.28629395 348.74302734 30.30688477 348.93261719 C20.98611913 350.56755802 11.808697 350.77385228 2.375 350.75 C1.563797 350.74945618 0.75259399 350.74891235 -0.08319092 350.74835205 C-26.94901208 350.66585856 -51.61989742 345.06740334 -75.8125 333.375 C-76.50585449 333.04129395 -77.19920898 332.70758789 -77.91357422 332.36376953 C-119.69013916 311.96524192 -150.5792222 274.8678344 -165.86230469 231.27978516 C-168.42061356 223.4589324 -170.29820029 215.45859891 -171.8125 207.375 C-171.99651367 206.42439697 -172.18052734 205.47379395 -172.37011719 204.49438477 C-174.00505802 195.17361913 -174.21135228 185.996197 -174.1875 176.5625 C-174.18695618 175.751297 -174.18641235 174.94009399 -174.18585205 174.10430908 C-174.10335856 147.23848792 -168.50490334 122.56760258 -156.8125 98.375 C-156.47879395 97.68164551 -156.14508789 96.98829102 -155.80126953 96.27392578 C-150.52299773 85.46392671 -144.31750979 75.76897397 -136.8125 66.375 C-136.33941406 65.78090332 -135.86632812 65.18680664 -135.37890625 64.57470703 C-108.99642697 31.82003678 -72.15226213 10.11917318 -30.8125 2.375 C-29.86189697 2.19098633 -28.91129395 2.00697266 -27.93188477 1.81738281 C-18.61111913 0.18244198 -9.433697 -0.02385228 0 0 Z M-39.75 32.0625 C-40.59062988 32.32305176 -41.43125977 32.58360352 -42.29736328 32.85205078 C-64.96992834 40.08651593 -84.50905032 51.99367773 -101.8125 68.375 C-102.69679687 69.19484375 -103.58109375 70.0146875 -104.4921875 70.859375 C-131.16538898 96.39915432 -146.10118993 132.89750772 -147.015625 169.625 C-147.51036935 212.41565935 -132.72911371 250.23724205 -103.0078125 281.2421875 C-85.40503612 298.93216029 -62.41626407 310.97025604 -38.8125 318.375 C-37.81089844 318.69339844 -36.80929688 319.01179688 -35.77734375 319.33984375 C3.10901849 330.33303476 43.74058703 321.31514939 78.24609375 302.140625 C85.6563701 297.69249099 92.32801595 292.35336206 98.9375 286.8125 C99.45634766 286.37776367 99.97519531 285.94302734 100.50976562 285.49511719 C128.224836 261.84750632 145.22057893 226.35359255 149.1875 190.375 C149.47371081 185.1005436 149.52703354 179.84229858 149.5 174.5625 C149.49884186 173.85944733 149.49768372 173.15639465 149.49649048 172.43203735 C149.4628953 162.11743779 148.91575957 152.37444676 146.1875 142.375 C145.94773437 141.39660156 145.70796875 140.41820312 145.4609375 139.41015625 C144.77079241 136.70645596 144.00020428 134.04417584 143.1875 131.375 C142.92453125 130.47007812 142.6615625 129.56515625 142.390625 128.6328125 C136.4577661 109.42908502 126.17064659 92.6071956 113.1875 77.375 C112.14335938 76.12976563 112.14335938 76.12976563 111.078125 74.859375 C105.66250161 68.59876073 99.75006891 63.40417311 93.1875 58.375 C92.31222656 57.69566406 91.43695313 57.01632813 90.53515625 56.31640625 C64.4045506 36.63211741 34.51842465 27.1562058 2.0625 27.0625 C1.34174286 27.05873352 0.62098572 27.05496704 -0.12161255 27.05108643 C-13.60403126 27.01542829 -26.81015818 27.96520104 -39.75 32.0625 Z " fill="#420083" transform="translate(173.8125,-0.375)"/>
<path d="M0 0 C1.10902176 0.00081573 1.10902176 0.00081573 2.240448 0.00164795 C37.63192543 0.12074861 72.39866754 12.98830911 98.33984375 37.45703125 C100.02989339 39.04976517 101.73914761 40.50452593 103.5625 41.9375 C123.66970069 59.3637406 136.71318368 86.15094094 143.375 111.375 C143.69984375 112.39722656 144.0246875 113.41945313 144.359375 114.47265625 C147.37162578 125.14563852 147.74711658 136.04192587 147.6875 147.0625 C147.68476578 148.11523605 147.68476578 148.11523605 147.68197632 149.1892395 C147.63413117 160.15325838 147.05187366 170.70702613 144.375 181.375 C144.20871094 182.06480957 144.04242188 182.75461914 143.87109375 183.46533203 C134.74676834 220.35971078 111.14984396 253.79129249 78.70849609 273.78198242 C70.580569 278.59907519 62.0000422 282.54052019 53.375 286.375 C52.17488281 286.91253906 50.97476563 287.45007813 49.73828125 288.00390625 C31.34442898 295.50244533 11.02471904 297.25363103 -8.625 296.375 C-9.4617627 296.33777832 -10.29852539 296.30055664 -11.16064453 296.26220703 C-48.57614171 294.2668113 -83.884879 276.28438833 -109.625 249.375 C-138.71492071 216.78439556 -150.58766913 177.08841706 -148.50488281 133.88330078 C-146.07971231 100.20123528 -130.58257067 69.62488425 -107.625 45.375 C-106.80515625 44.49070313 -105.9853125 43.60640625 -105.140625 42.6953125 C-87.77370056 24.55766656 -65.51150275 12.54451398 -41.6875 5.125 C-40.52686035 4.75532104 -40.52686035 4.75532104 -39.34277344 4.37817383 C-26.50151335 0.55145716 -13.3001258 -0.03717059 0 0 Z M-42.375 21.9375 C-43.11177979 22.18580566 -43.84855957 22.43411133 -44.60766602 22.68994141 C-57.92403906 27.4106272 -70.69038953 34.43284771 -81.625 43.375 C-82.18026367 43.82633301 -82.73552734 44.27766602 -83.30761719 44.74267578 C-110.5617474 67.03281844 -127.72527324 97.40108827 -132.625 132.375 C-135.75436396 168.9980412 -126.16350817 203.90350415 -102.625 232.375 C-86.52807908 251.40087137 -67.14820575 264.96744363 -43.625 273.375 C-41.96404297 273.97248047 -41.96404297 273.97248047 -40.26953125 274.58203125 C-18.55446894 281.78441838 5.16389097 283.03576371 27.375 277.375 C28.08672363 277.20339355 28.79844727 277.03178711 29.53173828 276.85498047 C52.89123719 271.19099796 72.63956167 260.60052939 90.375 244.375 C91.18453125 243.63636719 91.9940625 242.89773438 92.828125 242.13671875 C115.6667159 220.29631802 130.68836584 187.6516744 131.62890625 156.0703125 C132.22055123 117.4077217 121.16098478 83.68166217 94.37207031 55.27368164 C78.57183403 39.14290629 58.76886662 27.64704108 37.25 21.0625 C36.46359131 20.81999512 35.67718262 20.57749023 34.86694336 20.32763672 C23.41808564 16.99667472 11.98802908 16.02233864 0.11914062 16.05932617 C-1.99141171 16.06248714 -4.1005567 16.03891215 -6.2109375 16.01367188 C-18.6641669 15.95507888 -30.53817984 17.93929806 -42.375 21.9375 Z " fill="#FBFAFC" transform="translate(175.625,26.625)"/>
<path d="M0 0 C2.44357773 0.38002764 4.82345238 0.87749078 7.234375 1.42578125 C26.82911396 5.49418044 47.24656583 5.20883725 67.15234375 5.24023438 C70.83356759 5.24989131 74.5142199 5.2809956 78.1953125 5.3125 C97.23422351 5.3971188 116.24389011 4.43023208 134.90710449 0.41372681 C137.73935438 -0.14615671 140.49107023 -0.33634142 143.375 -0.375 C144.84066406 -0.41753906 144.84066406 -0.41753906 146.3359375 -0.4609375 C149.74575327 0.12903063 150.8764641 1.32376298 153 4 C154 6.875 154 6.875 154 10 C152.00560619 14.00412911 150.79175651 15.68565274 146.5859375 17.35546875 C145.18834326 17.66185335 143.78371431 17.93716988 142.375 18.1875 C141.22028198 18.4182019 141.22028198 18.4182019 140.04223633 18.65356445 C125.46869612 21.40256378 110.55857925 22.80878365 95.76391602 23.64428711 C91.79236254 24.15542159 89.8921279 25.26854587 87 28 C82.91753259 40.24740223 87.83404836 57.29626816 90.48681641 69.55810547 C90.94610294 71.74354024 91.35026072 73.92863326 91.73046875 76.12890625 C94.87059516 93.24632359 101.54536071 109.93342213 107.82247925 126.12103271 C109.5824966 130.67775138 110.74065152 134.0931837 110 139 C107.40783917 142.69186542 105.95850936 143.82883761 101.5 144.625 C97.06548734 143.83312274 95.92662809 142.3601061 93 139 C91.39770508 136.16699219 91.39770508 136.16699219 90.01953125 133.046875 C89.24017212 131.29842285 89.24017212 131.29842285 88.44506836 129.51464844 C87.90064305 128.25986793 87.35645872 127.00498285 86.8125 125.75 C86.24230604 124.46095838 85.67141536 123.17222474 85.09985352 121.88378906 C80.83805589 112.21371372 76.8885729 102.4289851 73.24731445 92.50683594 C72.87566162 91.53004883 72.50400879 90.55326172 72.12109375 89.546875 C71.8058374 88.68932617 71.49058105 87.83177734 71.16577148 86.94824219 C70.1607005 84.80563134 70.1607005 84.80563134 67.86743164 84.21582031 C67.2511792 84.14459961 66.63492676 84.07337891 66 84 C65.85522217 84.55292725 65.71044434 85.10585449 65.5612793 85.67553711 C63.34598168 93.60426609 60.12626526 101.04726996 56.8125 108.5625 C56.22653126 109.89817965 55.64059397 111.23387311 55.0546875 112.56958008 C53.90285623 115.19018506 52.74584061 117.80841284 51.58447266 120.42480469 C50.61471562 122.61295908 49.64968487 124.80322535 48.69287109 126.99707031 C47.64402667 129.40117315 46.57682939 131.79583363 45.5 134.1875 C45.2110083 134.856604 44.9220166 135.52570801 44.62426758 136.21508789 C42.7772657 140.21986723 41.04191234 142.19933763 37 144 C33.9375 144.4375 33.9375 144.4375 31 144 C28.69724444 142.1329009 27.32176129 140.64352259 26 138 C25.5563098 132.9029966 26.87504437 128.82906162 28.66796875 124.13671875 C28.94465897 123.38646927 29.22134918 122.63621979 29.50642395 121.86323547 C30.39100001 119.46782068 31.28817006 117.07741067 32.1875 114.6875 C38.55852746 97.66808306 44.05134235 81.03394975 46.94067383 63.05078125 C47.31507845 60.73404509 47.71217792 58.42196214 48.11132812 56.109375 C51.38797503 41.18304099 51.38797503 41.18304099 48.21240234 27.2199707 C42.48664711 21.47462835 31.72644318 22.39296728 24.09759521 21.73931885 C14.50636235 20.90598647 4.89834384 20.04894618 -4.625 18.625 C-5.32101318 18.53549072 -6.01702637 18.44598145 -6.73413086 18.35375977 C-11.557762 17.56721194 -14.00938273 15.82416031 -17 12 C-17.90738141 8.97351665 -17.46433133 7.2503193 -17 4 C-12.60971028 -1.90561431 -6.70636099 -0.53088772 0 0 Z " fill="#FCFBFD" transform="translate(107,131)"/>
<path d="M0 0 C5.51923537 5.14077352 9.04553409 13.03377435 9.5 20.5 C9.00441539 28.46392937 5.20030973 36.18088206 -0.6875 41.5625 C-8.51057278 47.30280665 -15.61984143 48.12476824 -25.25 47 C-32.08494928 44.94128034 -37.49323143 41.10913768 -41.25 35 C-45.02652409 27.47418637 -45.23830886 20.27402378 -44.25 12 C-41.73221882 4.79711685 -36.85414724 -0.30374538 -30.25 -4 C-19.38882887 -8.42492157 -9.64466308 -5.93517728 0 0 Z " fill="#FCFCFD" transform="translate(193.25,82)"/>
</svg>
